<?xml version="1.0" encoding="UTF-8" standalone="no"?>
<svg
   xmlns:dc="http://purl.org/dc/elements/1.1/"
   xmlns:cc="http://creativecommons.org/ns#"
   xmlns:rdf="http://www.w3.org/1999/02/22-rdf-syntax-ns#"
   xmlns:svg="http://www.w3.org/2000/svg"
   xmlns="http://www.w3.org/2000/svg"
   xmlns:sodipodi="http://sodipodi.sourceforge.net/DTD/sodipodi-0.dtd"
   xmlns:inkscape="http://www.inkscape.org/namespaces/inkscape"
   version="1.1"
   id="svg10"
   width="442.66666"
   height="633.33331"
   viewBox="0 0 442.66666 633.33331"
   sodipodi:docname="logo.svg"
   inkscape:version="1.0 (4035a4fb49, 2020-05-01)">
  <metadata
     id="metadata16">
    <rdf:RDF>
      <cc:Work
         rdf:about="">
        <dc:format>image/svg+xml</dc:format>
        <dc:type
           rdf:resource="http://purl.org/dc/dcmitype/StillImage" />
        <dc:title></dc:title>
      </cc:Work>
    </rdf:RDF>
  </metadata>
  <defs
     id="defs14" />
  <sodipodi:namedview
     inkscape:document-rotation="0"
     pagecolor="#ffffff"
     bordercolor="#666666"
     borderopacity="1"
     objecttolerance="10"
     gridtolerance="10"
     guidetolerance="10"
     inkscape:pageopacity="0"
     inkscape:pageshadow="2"
     inkscape:window-width="1920"
     inkscape:window-height="1001"
     id="namedview12"
     showgrid="false"
     inkscape:zoom="1.8533641"
     inkscape:cx="1.0481157"
     inkscape:cy="104.00142"
     inkscape:window-x="-9"
     inkscape:window-y="-9"
     inkscape:window-maximized="1"
     inkscape:current-layer="g18" />
  <g
     inkscape:groupmode="layer"
     inkscape:label="Image"
     id="g18">
    <circle
       style="fill:#e2e2e2;fill-opacity:1"
       id="path32"
       cx="137.58765"
       cy="394.28302"
       r="3.7094707" />
    <circle
       r="3.7094707"
       cy="461.18839"
       cx="185.33864"
       id="path32-9"
       style="fill:#e2e2e2;fill-opacity:1" />
    <rect
       style="fill:#e2e2e2;fill-opacity:1;stroke-width:0.860187"
       id="rect49"
       width="7.3976812"
       height="81.970459"
       x="-121.93289"
       y="399.7179"
       transform="matrix(0.80979523,-0.5867126,0.58323922,0.81230045,0,0)" />
    <circle
       r="3.7094707"
       cy="318.87961"
       cx="241.85748"
       id="path32-7"
       style="fill:#e2e2e2;fill-opacity:1" />
    <circle
       style="fill:#e2e2e2;fill-opacity:1"
       id="path32-9-7"
       cx="289.60849"
       cy="385.78497"
       r="3.7094707" />
    <rect
       transform="matrix(0.80979523,-0.5867126,0.58323922,0.81230045,0,0)"
       y="399.83298"
       x="6.7449703"
       height="81.970459"
       width="7.3976812"
       id="rect49-0"
       style="fill:#e2e2e2;fill-opacity:1;stroke-width:0.860187" />
    <path
       id="path114"
       style="fill:#e2e2e2;fill-opacity:1;stroke-width:0.97231"
       d="m 118.86523,220.36919 c -79.243488,-146.912793 -39.621746,-73.4564 0,0 z m 0,-5e-5 c -6.26631,9.63153 -16.7928,15.41348 -28.062496,15.41406 -16.065974,-1.8e-4 -29.9069,-11.64048 -33.09375,-27.83203 -0.05903,0.81887 -0.08835,1.63977 -0.08789,2.46094 4.04e-4,18.02751 14.044483,32.64171 31.36914,32.64258 13.638656,-2e-4 25.714546,-9.17001 29.874996,-22.68555 z m -61.244136,-9.95703 c 0,-1e-5 0.08789,-2.46093 0.08789,-2.46094 z"
       sodipodi:nodetypes="ccccccccccc" />
    <path
       sodipodi:nodetypes="cssssssssccsssssccsssssssssssscsssccssccsss"
       style="fill:#e2e2e2;fill-opacity:1;stroke-width:0.26978"
       d="M 85.669233,198.44373 C 75.307103,197.43365 66.335284,191.83672 59.997406,182.42876 46.482513,162.36722 45.494766,125.82733 57.61242,94.200548 64.192193,77.027501 74.303956,62.336826 85.967078,53.006042 c 2.630285,-2.104295 9.88864,-6.953399 10.802324,-7.24339 0.921587,-0.292501 -0.560772,-0.595366 -3.236288,-4.553801 -7.163538,-10.598478 -10.291898,-18.018174 -10.291898,-24.40984 0,-8.3406649 7.097283,-12.8929107 20.098584,-12.8913722 6.1001,7.23e-4 7.99647,0.7098593 11.9466,3.6883273 3.42913,2.5856229 6.78214,6.7784959 8.09237,11.8578389 1.94142,7.419345 3.18462,20.659202 -3.89164,25.55 -2.20852,1.36177 -0.45997,0.07492 7.6826,7.607738 3.61226,3.341762 10.48025,10.436128 14.21248,15.087993 12.76621,15.911849 19.59718,32.057111 21.45975,50.720964 0.19941,1.99816 0.26783,5.80235 0.1844,10.25163 -0.13098,6.98442 -0.27879,10.74848 -1.75526,16.20469 l -0.79754,2.94724 -0.45281,1.08807 c -0.75063,-0.0348 -2.50329,-0.4852 -4.10074,-1.27632 -3.54781,-1.75705 -6.00148,-2.05026 -5.48842,-3.48906 0.23212,-0.65092 1.1913,-1.52071 1.55449,-3.00449 3.47074,-14.17925 3.08509,-33.08301 -5.47047,-49.909249 -10.90025,-21.437525 -29.83982,-39.83927 -40.0507,-38.913381 -2.91313,0.264155 -8.395712,3.06449 -12.931108,6.604817 -17.468388,13.635809 -31.788132,45.253583 -34.322335,75.783183 -0.428046,5.15667 -0.199748,16.2484 0.418411,20.32828 1.002783,6.61841 3.163734,13.47486 5.645595,17.91285 7.739405,13.83935 22.047135,18.19507 41.301687,12.57354 4.75865,-1.38933 4.34324,-1.4471 6.85588,0.95345 1.20027,1.14675 2.43527,2.49427 2.74443,2.9945 l 0.56211,0.90951 -0.7338,0.87543 c -0.86757,1.035 -4.43024,2.64757 -9.6984,4.38978 -4.40283,1.45603 -9.044983,2.44162 -13.219205,2.80661 -3.5928,0.31415 -4.12173,0.31359 -7.418942,-0.008 z M 112.81511,39.919634 c 4.58074,-2.051397 5.38423,-9.910958 3.212,-16.536254 -2.11852,-6.461467 -4.4813,-9.693365 -8.44467,-11.550936 -2.91925,-1.090965 -6.12487,-0.990695 -8.476214,0.159249 -3.627566,1.785845 -5.616986,4.944558 -5.609395,8.906345 0.01438,7.50886 4.893925,17.621161 11.731429,19.387347 1.97147,0.509247 6.05087,0.322111 7.58685,-0.365751 z"
       id="path167" />
    <path
       style="fill:#6618da;fill-opacity:1;stroke-width:1.33333"
       d="m 227.6826,630.77043 c -8.9879,-2.96009 -18.66034,-8.89898 -24.55519,-15.07692 C 198.4332,610.77387 108.93734,487.18313 94.212429,465.28563 61.7654,417.03344 32.227642,357.72222 16.854426,309.9523 -4.4874954,243.63554 -5.1924706,187.10452 14.905877,153.70065 c 5.216165,-8.66937 16.750172,-19.63884 25.90968,-24.64151 l 7.471591,-3.46445 c -2.456134,21.51809 -0.271997,44.12677 12.075495,60.74513 2.691059,3.73474 2.438372,4.16792 0.377435,7.31332 -3.160756,4.82392 -4.835468,11.37536 -4.88603,19.11406 -0.184241,28.1991 35.692621,43.04427 56.647922,23.43983 10.02222,-9.37614 13.21418,-27.45559 6.93299,-39.26889 -1.77743,-3.34289 -2.98642,-6.32326 -2.68664,-6.62305 0.29979,-0.29979 -1.39595,-2.35897 -3.7683,-4.57599 -5.64183,-5.27242 -24.022333,-5.49061 -36.500351,-4.4445 -10.790957,-1.30935 -19.557482,-30.98096 -13.423946,-59.50798 1.99302,-1.99519 28.123616,-0.79769 41.055467,1.88148 15.25323,3.1601 45.38135,14.70502 46.17879,17.69544 0.72422,2.71583 9.00234,7.14563 11.53623,6.17328 2.22104,-0.85229 25.29627,13.06142 41.56905,25.06496 43.51032,32.09519 88.81343,77.83563 127.4535,128.68385 24.00831,31.59363 103.95737,143.97633 106.46009,149.6487 1.37946,3.12655 3.22792,9.8324 4.10768,14.9019 2.81697,16.23257 -2.72112,35.4529 -13.92539,48.32898 -5.51391,6.33664 -52.36948,40.86075 -55.66788,41.01717 -1.39735,0.0663 -19.71784,-24.24445 -51.16682,-67.89675 -26.94455,-37.4 -49.25938,-68.69831 -49.58851,-69.55179 -0.32912,-0.85349 2.59595,-3.90109 6.50016,-6.77245 13.96825,-10.27299 13.46928,-10.08243 21.62237,-8.25785 17.76928,3.9766 34.02871,-8.89126 34.11359,-26.99778 0.0161,-3.4356 -0.57915,-7.84681 -1.32277,-9.8027 -1.94223,-5.10843 -50.14014,-72.22941 -56.58236,-78.79727 -5.48358,-5.5905 -12.31024,-8.46509 -20.13714,-8.47938 -6.22285,-0.012 -17.16136,6.07212 -21.04342,11.70337 -3.46656,5.02852 -6.88611,16.79672 -5.52206,19.00381 1.07062,1.73228 -0.7854,3.17363 -48.6963,37.81696 -37.2843,26.95945 -43.79864,31.20321 -46.66667,30.40089 -1.83333,-0.51286 -7.28609,-0.93248 -12.11723,-0.93248 -7.51409,0 -9.58696,0.55686 -14.33915,3.85203 -9.507781,6.59273 -13.424821,16.06799 -11.619421,28.10722 0.74281,4.95346 5.328821,12.10247 27.578261,42.99111 14.67801,20.37731 27.99459,38.47879 29.59241,40.22553 7.85802,8.5904 21.5732,10.43552 33.04041,4.44498 5.75292,-3.00536 7.81356,-5.066 10.81892,-10.81892 2.39029,-4.57552 3.71247,-9.1564 3.71247,-12.86236 0,-5.68492 0.13306,-5.84968 10.7866,-13.35744 10.51378,-7.40927 10.84726,-7.53806 13.18469,-5.09184 1.31895,1.38033 24.1136,32.73964 50.65479,69.68734 39.52966,55.02884 47.93576,67.47797 46.48198,68.83832 -6.3261,5.9195 -44.63374,32.39814 -51.77473,35.78721 -7.48135,3.55061 -10.39907,4.16477 -21.33333,4.49057 -9.62304,0.28674 -14.50503,-0.22802 -20.3174,-2.14228 z"
       id="path24"
       sodipodi:nodetypes="ssssssccssssssccsssssssssssssssscsssssssssssssssssss" />
       cx="289.60849"
       cy="385.78497"
       r="3.7094707" />
    <rect
       transform="matrix(0.80979523,-0.5867126,0.58323922,0.81230045,0,0)"
       y="399.83298"
       x="6.7449703"
       height="81.970459"
       width="7.3976812"
       id="rect49-0"
       style="fill:#e2e2e2;fill-opacity:1;stroke-width:0.860187" />
    <path
       id="path114"
       style="fill:#e2e2e2;fill-opacity:1;stroke-width:0.97231"
       d="m 118.86523,220.36919 c -79.243488,-146.912793 -39.621746,-73.4564 0,0 z m 0,-5e-5 c -6.26631,9.63153 -16.7928,15.41348 -28.062496,15.41406 -16.065974,-1.8e-4 -29.9069,-11.64048 -33.09375,-27.83203 -0.05903,0.81887 -0.08835,1.63977 -0.08789,2.46094 4.04e-4,18.02751 14.044483,32.64171 31.36914,32.64258 13.638656,-2e-4 25.714546,-9.17001 29.874996,-22.68555 z m -61.244136,-9.95703 c 0,-1e-5 0.08789,-2.46093 0.08789,-2.46094 z"
       sodipodi:nodetypes="ccccccccccc" />
    <path
       sodipodi:nodetypes="cssssssssccsssssccsssssssssssscsssccssccsss"
       style="fill:#e2e2e2;fill-opacity:1;stroke-width:0.26978"
       d="M 85.669233,198.44373 C 75.307103,197.43365 66.335284,191.83672 59.997406,182.42876 46.482513,162.36722 45.494766,125.82733 57.61242,94.200548 64.192193,77.027501 74.303956,62.336826 85.967078,53.006042 c 2.630285,-2.104295 9.88864,-6.953399 10.802324,-7.24339 0.921587,-0.292501 -0.560772,-0.595366 -3.236288,-4.553801 -7.163538,-10.598478 -10.291898,-18.018174 -10.291898,-24.40984 0,-8.3406649 7.097283,-12.8929107 20.098584,-12.8913722 6.1001,7.23e-4 7.99647,0.7098593 11.9466,3.6883273 3.42913,2.5856229 6.78214,6.7784959 8.09237,11.8578389 1.94142,7.419345 3.18462,20.659202 -3.89164,25.55 -2.20852,1.36177 -0.45997,0.07492 7.6826,7.607738 3.61226,3.341762 10.48025,10.436128 14.21248,15.087993 12.76621,15.911849 19.59718,32.057111 21.45975,50.720964 0.19941,1.99816 0.26783,5.80235 0.1844,10.25163 -0.13098,6.98442 -0.27879,10.74848 -1.75526,16.20469 l -0.79754,2.94724 -0.45281,1.08807 c -0.75063,-0.0348 -2.50329,-0.4852 -4.10074,-1.27632 -3.54781,-1.75705 -6.00148,-2.05026 -5.48842,-3.48906 0.23212,-0.65092 1.1913,-1.52071 1.55449,-3.00449 3.47074,-14.17925 3.08509,-33.08301 -5.47047,-49.909249 -10.90025,-21.437525 -29.83982,-39.83927 -40.0507,-38.913381 -2.91313,0.264155 -8.395712,3.06449 -12.931108,6.604817 -17.468388,13.635809 -31.788132,45.253583 -34.322335,75.783183 -0.428046,5.15667 -0.199748,16.2484 0.418411,20.32828 1.002783,6.61841 3.163734,13.47486 5.645595,17.91285 7.739405,13.83935 22.047135,18.19507 41.301687,12.57354 4.75865,-1.38933 4.34324,-1.4471 6.85588,0.95345 1.20027,1.14675 2.43527,2.49427 2.74443,2.9945 l 0.56211,0.90951 -0.7338,0.87543 c -0.86757,1.035 -4.43024,2.64757 -9.6984,4.38978 -4.40283,1.45603 -9.044983,2.44162 -13.219205,2.80661 -3.5928,0.31415 -4.12173,0.31359 -7.418942,-0.008 z M 112.81511,39.919634 c 4.58074,-2.051397 5.38423,-9.910958 3.212,-16.536254 -2.11852,-6.461467 -4.4813,-9.693365 -8.44467,-11.550936 -2.91925,-1.090965 -6.12487,-0.990695 -8.476214,0.159249 -3.627566,1.785845 -5.616986,4.944558 -5.609395,8.906345 0.01438,7.50886 4.893925,17.621161 11.731429,19.387347 1.97147,0.509247 6.05087,0.322111 7.58685,-0.365751 z"
       id="path167" />
    <path
       style="fill:#6618da;fill-opacity:1;stroke-width:1.33333"
       d="m 227.6826,630.77043 c -8.9879,-2.96009 -18.66034,-8.89898 -24.55519,-15.07692 C 198.4332,610.77387 108.93734,487.18313 94.212429,465.28563 61.7654,417.03344 32.227642,357.72222 16.854426,309.9523 -4.4874954,243.63554 -5.1924706,187.10452 14.905877,153.70065 c 5.216165,-8.66937 16.750172,-19.63884 25.90968,-24.64151 l 7.471591,-3.46445 c -2.456134,21.51809 -0.271997,44.12677 12.075495,60.74513 2.691059,3.73474 2.438372,4.16792 0.377435,7.31332 -3.160756,4.82392 -4.835468,11.37536 -4.88603,19.11406 -0.184241,28.1991 35.692621,43.04427 56.647922,23.43983 10.02222,-9.37614 13.21418,-27.45559 6.93299,-39.26889 -1.77743,-3.34289 -2.98642,-6.32326 -2.68664,-6.62305 0.29979,-0.29979 -1.39595,-2.35897 -3.7683,-4.57599 -5.64183,-5.27242 -24.022333,-5.49061 -36.500351,-4.4445 -10.790957,-1.30935 -19.557482,-30.98096 -13.423946,-59.50798 1.99302,-1.99519 28.123616,-0.79769 41.055467,1.88148 15.25323,3.1601 45.38135,14.70502 46.17879,17.69544 0.72422,2.71583 9.00234,7.14563 11.53623,6.17328 2.22104,-0.85229 25.29627,13.06142 41.56905,25.06496 43.51032,32.09519 88.81343,77.83563 127.4535,128.68385 24.00831,31.59363 103.95737,143.97633 106.46009,149.6487 1.37946,3.12655 3.22792,9.8324 4.10768,14.9019 2.81697,16.23257 -2.72112,35.4529 -13.92539,48.32898 -5.51391,6.33664 -52.36948,40.86075 -55.66788,41.01717 -1.39735,0.0663 -19.71784,-24.24445 -51.16682,-67.89675 -26.94455,-37.4 -49.25938,-68.69831 -49.58851,-69.55179 -0.32912,-0.85349 2.59595,-3.90109 6.50016,-6.77245 13.96825,-10.27299 13.46928,-10.08243 21.62237,-8.25785 17.76928,3.9766 34.02871,-8.89126 34.11359,-26.99778 0.0161,-3.4356 -0.57915,-7.84681 -1.32277,-9.8027 -1.94223,-5.10843 -50.14014,-72.22941 -56.58236,-78.79727 -5.48358,-5.5905 -12.31024,-8.46509 -20.13714,-8.47938 -6.22285,-0.012 -17.16136,6.07212 -21.04342,11.70337 -3.46656,5.02852 -6.88611,16.79672 -5.52206,19.00381 1.07062,1.73228 -0.7854,3.17363 -48.6963,37.81696 -37.2843,26.95945 -43.79864,31.20321 -46.66667,30.40089 -1.83333,-0.51286 -7.28609,-0.93248 -12.11723,-0.93248 -7.51409,0 -9.58696,0.55686 -14.33915,3.85203 -9.507781,6.59273 -13.424821,16.06799 -11.619421,28.10722 0.74281,4.95346 5.328821,12.10247 27.578261,42.99111 14.67801,20.37731 27.99459,38.47879 29.59241,40.22553 7.85802,8.5904 21.5732,10.43552 33.04041,4.44498 5.75292,-3.00536 7.81356,-5.066 10.81892,-10.81892 2.39029,-4.57552 3.71247,-9.1564 3.71247,-12.86236 0,-5.68492 0.13306,-5.84968 10.7866,-13.35744 10.51378,-7.40927 10.84726,-7.53806 13.18469,-5.09184 1.31895,1.38033 24.1136,32.73964 50.65479,69.68734 39.52966,55.02884 47.93576,67.47797 46.48198,68.83832 -6.3261,5.9195 -44.63374,32.39814 -51.77473,35.78721 -7.48135,3.55061 -10.39907,4.16477 -21.33333,4.49057 -9.62304,0.28674 -14.50503,-0.22802 -20.3174,-2.14228 z"
       id="path24"
       sodipodi:nodetypes="ssssssccssssssccsssssssssssssssscsssssssssssssssssss" />
  </g>
</svg>
